<svg width="18" height="20" viewBox="0 0 18 20" fill="none" xmlns="http://www.w3.org/2000/svg">
<path d="M14.8333 9.16667H3.16667C2.24619 9.16667 1.5 9.91286 1.5 10.8333V16.6667C1.5 17.5871 2.24619 18.3333 3.16667 18.3333H14.8333C15.7538 18.3333 16.5 17.5871 16.5 16.6667V10.8333C16.5 9.91286 15.7538 9.16667 14.8333 9.16667Z" stroke="#028BAF" stroke-width="2" stroke-linecap="round" stroke-linejoin="round"/>
<path d="M4.83331 9.16667V5.83334C4.83331 4.72827 5.2723 3.66846 6.0537 2.88706C6.8351 2.10566 7.89491 1.66667 8.99998 1.66667C10.105 1.66667 11.1649 2.10566 11.9463 2.88706C12.7277 3.66846 13.1666 4.72827 13.1666 5.83334V9.16667" stroke="#028BAF" stroke-width="2" stroke-linecap="round" stroke-linejoin="round"/>
</svg>
